<svg width="300" height="300" viewBox="0 0 300 300" fill="none" xmlns="http://www.w3.org/2000/svg">
<path d="M174 190.273C173.861 176.794 166.172 165.482 165.845 155.158C165.518 144.845 171.79 131.895 172.454 122.58C173.118 113.264 173.574 108.352 161.931 105.107C159.266 104.368 153.925 103.03 150.249 103C145.305 102.97 140.717 104.688 136.625 105.566C128.044 107.403 127.33 113.264 127.994 122.58C128.658 131.895 134.93 144.845 134.603 155.158C134.276 165.472 125.834 179.71 126.002 189.035C126.181 198.361 126.508 205.22 127.548 212.618C129.054 223.321 132.671 234.554 133.216 239.087C133.761 243.619 133.137 250.039 133.384 256.2C133.632 262.36 139.468 283.407 140.013 287.93C140.439 291.484 137.239 293.152 136.981 295.528C136.684 298.224 137.477 299.212 140.806 298.952L147.544 298.883C150.873 298.633 149.912 295.827 149.258 293.351C148.763 291.474 148.119 289.487 147.98 288.09C147.891 287.191 148.148 272.314 148.634 256.04C148.802 250.299 148.337 245.516 148.941 240.165C149.397 236.111 147.871 209.992 147.108 196.204C146.989 193.528 148.109 190.713 150.09 190.713C152.072 190.713 153.023 193.368 152.934 196.034C152.934 196.104 152.944 196.174 152.944 196.244C152.171 210.042 150.655 236.131 151.111 240.175C151.715 245.526 151.25 250.319 151.418 256.05C151.904 272.324 152.161 287.201 152.072 288.1C151.924 289.497 151.289 291.494 150.794 293.361C150.14 295.847 149.179 298.643 152.508 298.893L159.246 298.962C162.575 299.212 163.368 298.234 163.071 295.538C162.813 293.162 159.613 291.494 160.039 287.94C160.584 283.427 166.42 262.37 166.668 256.21C166.915 250.049 166.291 243.629 166.836 239.097C167.381 234.564 170.998 223.331 172.504 212.628C173.534 205.23 174 190.503 174 190.273Z" fill="#F7C0A6"/>
<path d="M159.092 104.13C161.484 104.743 159.373 113 150.089 113C140.814 113 138.422 105.088 140.934 104.288C143.446 103.488 143.637 101.661 143.889 100.238C144.14 98.8161 144.059 89.9264 144.059 89.9264C144.059 86.657 146.762 84 150.089 84C153.415 84 156.118 86.657 156.118 89.9264C156.118 89.9264 156.098 98.8161 156.118 99.9915C156.138 101.167 156.711 103.518 159.092 104.13Z" fill="#E8AD95"/>
<path opacity="0.4" d="M150.025 84C146.729 84 144.05 86.6164 144.05 89.8359C144.05 89.8359 144.1 95.0979 144 98.1131C145.862 98.8231 147.874 100 150.025 100C152.146 100 154.148 98.8426 155.99 98.1423C155.99 95.273 156 89.8359 156 89.8359C156 86.6067 153.321 84 150.025 84Z" fill="#E8AD95"/>
<path d="M121.514 207.988C118.023 208.339 115.384 200.747 115.022 196.736C114.698 193.226 115.826 187.098 115.63 183.578C115.149 174.492 113.158 167.993 114.404 155.006C115.218 146.492 116.571 148.227 116.856 141.828C117.503 127.146 120.494 116.295 122.593 112.524C124.947 108.282 131.077 106.777 135.001 106.025C137.923 105.464 133.627 114.399 132.382 117.157C132.294 117.358 128.772 127.477 126.173 143.333C125.369 148.257 125.565 153.552 124.947 160.02C124.035 169.508 122.584 177.29 122.74 185.584C122.868 192.363 124.163 193.687 124.555 196.275C124.947 198.862 124.947 207.637 121.514 207.988Z" fill="#F7C0A6"/>
<path d="M178.444 206.988C181.955 207.337 184.608 199.799 184.973 195.815C185.298 192.33 184.164 186.246 184.361 182.75C184.845 173.728 186.847 166.379 185.594 153.484C184.776 145.029 183.415 146.752 183.129 140.399C182.478 125.82 179.47 115.942 177.36 112.197C174.993 107.985 167.064 106.093 162.744 105.038C159.845 104.321 166.265 114.06 167.517 116.798C167.606 116.997 171.147 126.149 173.76 141.892C174.569 146.782 174.371 152.04 174.993 158.463C175.91 167.883 177.369 176.507 177.212 184.742C177.083 191.474 175.782 192.788 175.387 195.357C174.993 197.926 174.993 206.64 178.444 206.988Z" fill="#F7C0A6"/>
<path d="M126.002 188.471C126.181 197.836 126.508 204.725 127.548 212.155C129.054 222.903 132.67 234.184 133.214 238.736C133.759 243.288 133.135 249.735 133.383 255.922C133.63 262.108 139.465 283.245 140.01 287.787C140.06 288.218 140.06 288.619 140.02 289H148.154C148.074 288.629 148.015 288.268 147.975 287.947C147.886 287.045 148.144 272.105 148.629 255.761C148.798 249.996 148.332 245.193 148.936 239.819C149.392 235.748 150.858 211.713 150.095 197.866C149.976 195.179 150.085 190.938 150.085 190.938C150.085 190.938 150.056 195.159 149.967 197.836C149.967 197.907 150.65 235.758 151.106 239.819C151.71 245.193 151.244 250.006 151.413 255.761C151.898 272.105 152.156 287.045 152.067 287.947C152.037 288.268 151.968 288.629 151.888 289H160.022C159.982 288.619 159.972 288.218 160.032 287.787C160.577 283.255 166.412 262.108 166.659 255.922C166.907 249.735 166.283 243.288 166.828 238.736C167.372 234.184 170.988 222.903 172.494 212.155C173.534 204.725 174 189.935 174 189.715C173.941 183.558 172.316 178.575 170.533 173H129.876C127.835 179.016 125.923 183.969 126.002 188.471Z" fill="#2E991F"/>
<path d="M129.25 129.645C129.25 129.645 134.843 146.814 134.587 154.693C134.36 161.656 130.452 169.923 128 178H172C169.686 169.147 165.866 161.905 165.63 154.693C165.384 146.904 170.907 129.923 170.907 129.923C170.907 129.923 168.397 122.93 167.609 117.708C166.733 111.878 167.855 106.517 167.855 106.517C167.855 106.517 163.552 105.323 161.741 104.816C160.904 104.577 158.571 104 158.571 104C158.571 104 158.748 111.988 150.133 111.988C141.518 111.988 140.425 104.318 140.425 104.318C140.425 104.318 137.826 105.005 136.595 105.273C135.177 105.572 131.613 106.457 131.613 106.457C131.613 106.457 132.539 113.251 132.165 118.334C131.791 123.477 129.25 129.645 129.25 129.645Z" fill="#E82323"/>
<path d="M164.935 76.7C164.2 87.84 158.028 97 149.506 97C140.983 97 134.988 87.83 134.077 76.7C133.234 66.41 139.377 58 149.506 58C161.075 58 165.611 66.4 164.935 76.7Z" fill="#F7C0A6"/>
<path d="M149.392 192C148.913 192 149.008 197.633 149.008 202.854C149.008 208.065 149.666 214 149.666 214C149.666 214 150.074 209.292 149.988 203.78C149.886 197.201 149.87 192 149.392 192Z" fill="#2B871B"/>
<path d="M150.899 56.0078C138.971 55.7364 135.989 62.6528 135.989 62.6528C135.989 62.6528 130.641 64.6634 131.019 71.3184C131.586 81.3614 135.492 83 135.492 83L137.649 70.5142C142.54 71.8513 147.579 72.9068 153.971 73.0275C158.364 73.1079 161.674 73.0777 163.414 72.8566L164.925 82.9899C164.925 82.9899 169.746 80.4465 168.901 70.4237C168.175 61.7681 160.094 56.2088 150.899 56.0078Z" fill="#845340"/>
</svg>
